<?xml version="1.0" standalone="no"?>
<!DOCTYPE svg PUBLIC "-//W3C//DTD SVG 20010904//EN"
 "http://www.w3.org/TR/2001/REC-SVG-20010904/DTD/svg10.dtd">
<svg version="1.0" xmlns="http://www.w3.org/2000/svg"
 width="640.000000pt" height="640.000000pt" viewBox="0 0 640.000000 640.000000"
 preserveAspectRatio="xMidYMid meet">
<metadata>
Created by potrace 1.11, written by Peter Selinger 2001-2013
</metadata>
<g transform="translate(0.000000,640.000000) scale(0.100000,-0.100000)"
fill="#000000" stroke="none">
<path d="M2999 6326 c-2 -3 -40 -7 -84 -10 -44 -3 -89 -8 -101 -10 -12 -2 -45
-7 -75 -11 -126 -16 -505 -107 -524 -127 -2 -2 14 -40 35 -84 97 -195 102
-398 16 -587 -59 -127 -194 -259 -319 -312 -20 -8 -37 -21 -37 -28 0 -6 9 -41
21 -77 11 -35 22 -80 25 -100 3 -19 8 -38 10 -42 6 -9 5 -223 0 -260 -31 -207
-138 -414 -286 -553 -98 -91 -286 -200 -380 -219 -14 -3 -40 -9 -58 -15 -18
-5 -35 -10 -37 -10 -3 0 -32 -3 -65 -7 -64 -7 -63 -7 -76 -79 -26 -150 -139
-317 -279 -409 -113 -75 -227 -106 -375 -102 -118 4 -119 4 -221 41 -41 15
-82 29 -92 32 -17 5 -18 -6 -13 -213 3 -121 8 -235 11 -254 2 -19 9 -71 15
-115 5 -44 12 -91 15 -105 3 -14 12 -59 20 -100 63 -328 216 -712 398 -1004
400 -641 1006 -1115 1712 -1339 104 -33 219 -64 275 -74 14 -2 41 -8 60 -13
19 -5 58 -12 85 -16 28 -3 59 -8 70 -10 20 -4 54 -8 185 -23 84 -9 530 -7 600
3 260 38 274 41 428 78 589 141 1126 462 1557 929 158 172 286 347 407 559
153 267 297 646 342 900 3 19 8 46 11 60 8 37 13 69 21 125 3 28 8 58 10 69
13 71 19 191 19 386 0 245 -6 324 -35 504 -28 169 -27 160 -59 286 -82 318
-223 639 -399 910 -51 78 -191 270 -216 296 -6 6 -31 35 -56 64 -100 117 -265
274 -412 392 -458 368 -1012 594 -1623 664 -63 7 -520 16 -526 10z m352 -2111
c121 -14 286 -75 399 -148 216 -139 359 -330 434 -577 104 -349 9 -730 -247
-993 -125 -129 -249 -205 -418 -261 -119 -39 -202 -51 -339 -49 -378 4 -732
234 -898 583 -215 454 -63 1003 356 1283 208 139 448 194 713 162z"/>
</g>
</svg>
